{
    "asset" : {
        "generator" : "Khronos glTF Blender I/O v3.4.50",
        "version" : "2.0"
    },
    "scene" : 0,
    "scenes" : [
        {
            "name" : "Scene",
            "nodes" : [
                5
            ]
        }
    ],
    "nodes" : [
        {
            "mesh" : 0,
            "name" : "Engine",
            "translation" : [
                0,
                -1.8507870435714722,
                0
            ]
        },
        {
            "mesh" : 1,
            "name" : "Tip"
        },
        {
            "mesh" : 2,
            "name" : "Window",
            "rotation" : [
                0.6056593060493469,
                0,
                0,
                0.795724093914032
            ],
            "translation" : [
                0,
                -0.17802882194519043,
                0.49528637528419495
            ]
        },
        {
            "mesh" : 3,
            "name" : "Window.001",
            "rotation" : [
                0.6056593060493469,
                0,
                0,
                0.795724093914032
            ],
            "translation" : [
                0,
                -0.17802882194519043,
                0.49528637528419495
            ]
        },
        {
            "mesh" : 4,
            "name" : "Wings",
            "rotation" : [
                0,
                0.7071068286895752,
                0,
                0.7071067094802856
            ],
            "translation" : [
                -0.011302020400762558,
                0,
                0
            ]
        },
        {
            "children" : [
                0,
                1,
                2,
                3,
                4
            ],
            "mesh" : 5,
            "name" : "Body",
            "translation" : [
                0,
                2.161129951477051,
                0
            ]
        }
    ],
    "materials" : [
        {
            "doubleSided" : true,
            "name" : "Dull Plastic Gray",
            "pbrMetallicRoughness" : {}
        },
        {
            "doubleSided" : true,
            "name" : "Glossy Plastic Red",
            "pbrMetallicRoughness" : {}
        },
        {
            "doubleSided" : true,
            "name" : "Metal",
            "pbrMetallicRoughness" : {
                "baseColorFactor" : [
                    0.7019909620285034,
                    0.6962789297103882,
                    0.8000000715255737,
                    1
                ],
                "roughnessFactor" : 0.4000000059604645
            }
        },
        {
            "doubleSided" : true,
            "name" : "Glossy Plastic Blue",
            "pbrMetallicRoughness" : {}
        }
    ],
    "meshes" : [
        {
            "name" : "Cylinder.006",
            "primitives" : [
                {
                    "attributes" : {
                        "POSITION" : 0,
                        "TEXCOORD_0" : 1,
                        "NORMAL" : 2
                    },
                    "indices" : 3,
                    "material" : 0
                }
            ]
        },
        {
            "name" : "Cylinder.003",
            "primitives" : [
                {
                    "attributes" : {
                        "POSITION" : 4,
                        "TEXCOORD_0" : 5,
                        "NORMAL" : 6
                    },
                    "indices" : 7,
                    "material" : 1
                }
            ]
        },
        {
            "name" : "Cylinder.007",
            "primitives" : [
                {
                    "attributes" : {
                        "POSITION" : 8,
                        "TEXCOORD_0" : 9,
                        "NORMAL" : 10
                    },
                    "indices" : 11,
                    "material" : 2
                }
            ]
        },
        {
            "name" : "Cylinder.008",
            "primitives" : [
                {
                    "attributes" : {
                        "POSITION" : 12,
                        "TEXCOORD_0" : 13,
                        "NORMAL" : 14
                    },
                    "indices" : 15,
                    "material" : 3
                }
            ]
        },
        {
            "name" : "Cube.003",
            "primitives" : [
                {
                    "attributes" : {
                        "POSITION" : 16,
                        "TEXCOORD_0" : 17,
                        "NORMAL" : 18
                    },
                    "indices" : 19,
                    "material" : 1
                }
            ]
        },
        {
            "name" : "Cylinder.002",
            "primitives" : [
                {
                    "attributes" : {
                        "POSITION" : 20,
                        "TEXCOORD_0" : 21,
                        "NORMAL" : 22
                    },
                    "indices" : 23,
                    "material" : 2
                }
            ]
        }
    ],
    "accessors" : [
        {
            "bufferView" : 0,
            "componentType" : 5126,
            "count" : 998,
            "max" : [
                0.5092880725860596,
                0.42403289675712585,
                0.5092880725860596
            ],
            "min" : [
                -0.5092880725860596,
                -0.10000002384185791,
                -0.5092880725860596
            ],
            "type" : "VEC3"
        },
        {
            "bufferView" : 1,
            "componentType" : 5126,
            "count" : 998,
            "type" : "VEC2"
        },
        {
            "bufferView" : 2,
            "componentType" : 5126,
            "count" : 998,
            "type" : "VEC3"
        },
        {
            "bufferView" : 3,
            "componentType" : 5123,
            "count" : 3804,
            "type" : "SCALAR"
        },
        {
            "bufferView" : 4,
            "componentType" : 5126,
            "count" : 338,
            "max" : [
                0.4159415364265442,
                0.9470791220664978,
                0.4282451868057251
            ],
            "min" : [
                -0.440548837184906,
                0.2662771940231323,
                -0.4282451868057251
            ],
            "type" : "VEC3"
        },
        {
            "bufferView" : 5,
            "componentType" : 5126,
            "count" : 338,
            "type" : "VEC2"
        },
        {
            "bufferView" : 6,
            "componentType" : 5126,
            "count" : 338,
            "type" : "VEC3"
        },
        {
            "bufferView" : 7,
            "componentType" : 5123,
            "count" : 1716,
            "type" : "SCALAR"
        },
        {
            "bufferView" : 8,
            "componentType" : 5126,
            "count" : 356,
            "max" : [
                0.325586199760437,
                0.09723279625177383,
                0.325586199760437
            ],
            "min" : [
                -0.325586199760437,
                -0.09723279625177383,
                -0.325586199760437
            ],
            "type" : "VEC3"
        },
        {
            "bufferView" : 9,
            "componentType" : 5126,
            "count" : 356,
            "type" : "VEC2"
        },
        {
            "bufferView" : 10,
            "componentType" : 5126,
            "count" : 356,
            "type" : "VEC3"
        },
        {
            "bufferView" : 11,
            "componentType" : 5123,
            "count" : 1344,
            "type" : "SCALAR"
        },
        {
            "bufferView" : 12,
            "componentType" : 5126,
            "count" : 257,
            "max" : [
                0.2749442458152771,
                0.17079775035381317,
                0.27494415640830994
            ],
            "min" : [
                -0.2749440371990204,
                0.07490435987710953,
                -0.2749439775943756
            ],
            "type" : "VEC3"
        },
        {
            "bufferView" : 13,
            "componentType" : 5126,
            "count" : 257,
            "type" : "VEC2"
        },
        {
            "bufferView" : 14,
            "componentType" : 5126,
            "count" : 257,
            "type" : "VEC3"
        },
        {
            "bufferView" : 15,
            "componentType" : 5123,
            "count" : 1440,
            "type" : "SCALAR"
        },
        {
            "bufferView" : 16,
            "componentType" : 5126,
            "count" : 3100,
            "max" : [
                0.8128544092178345,
                -0.6650314331054688,
                0.8241563439369202
            ],
            "min" : [
                -0.8128544092178345,
                -2.1761670112609863,
                -0.8015524744987488
            ],
            "type" : "VEC3"
        },
        {
            "bufferView" : 17,
            "componentType" : 5126,
            "count" : 3100,
            "type" : "VEC2"
        },
        {
            "bufferView" : 18,
            "componentType" : 5126,
            "count" : 3100,
            "type" : "VEC3"
        },
        {
            "bufferView" : 19,
            "componentType" : 5123,
            "count" : 15552,
            "type" : "SCALAR"
        },
        {
            "bufferView" : 20,
            "componentType" : 5126,
            "count" : 728,
            "max" : [
                0.6178399920463562,
                0.2662771940231323,
                0.6303647756576538
            ],
            "min" : [
                -0.6425062417984009,
                -1.5294526815414429,
                -0.6303379535675049
            ],
            "type" : "VEC3"
        },
        {
            "bufferView" : 21,
            "componentType" : 5126,
            "count" : 728,
            "type" : "VEC2"
        },
        {
            "bufferView" : 22,
            "componentType" : 5126,
            "count" : 728,
            "type" : "VEC3"
        },
        {
            "bufferView" : 23,
            "componentType" : 5123,
            "count" : 3570,
            "type" : "SCALAR"
        }
    ],
    "bufferViews" : [
        {
            "buffer" : 0,
            "byteLength" : 11976,
            "byteOffset" : 0,
            "target" : 34962
        },
        {
            "buffer" : 0,
            "byteLength" : 7984,
            "byteOffset" : 11976,
            "target" : 34962
        },
        {
            "buffer" : 0,
            "byteLength" : 11976,
            "byteOffset" : 19960,
            "target" : 34962
        },
        {
            "buffer" : 0,
            "byteLength" : 7608,
            "byteOffset" : 31936,
            "target" : 34963
        },
        {
            "buffer" : 0,
            "byteLength" : 4056,
            "byteOffset" : 39544,
            "target" : 34962
        },
        {
            "buffer" : 0,
            "byteLength" : 2704,
            "byteOffset" : 43600,
            "target" : 34962
        },
        {
            "buffer" : 0,
            "byteLength" : 4056,
            "byteOffset" : 46304,
            "target" : 34962
        },
        {
            "buffer" : 0,
            "byteLength" : 3432,
            "byteOffset" : 50360,
            "target" : 34963
        },
        {
            "buffer" : 0,
            "byteLength" : 4272,
            "byteOffset" : 53792,
            "target" : 34962
        },
        {
            "buffer" : 0,
            "byteLength" : 2848,
            "byteOffset" : 58064,
            "target" : 34962
        },
        {
            "buffer" : 0,
            "byteLength" : 4272,
            "byteOffset" : 60912,
            "target" : 34962
        },
        {
            "buffer" : 0,
            "byteLength" : 2688,
            "byteOffset" : 65184,
            "target" : 34963
        },
        {
            "buffer" : 0,
            "byteLength" : 3084,
            "byteOffset" : 67872,
            "target" : 34962
        },
        {
            "buffer" : 0,
            "byteLength" : 2056,
            "byteOffset" : 70956,
            "target" : 34962
        },
        {
            "buffer" : 0,
            "byteLength" : 3084,
            "byteOffset" : 73012,
            "target" : 34962
        },
        {
            "buffer" : 0,
            "byteLength" : 2880,
            "byteOffset" : 76096,
            "target" : 34963
        },
        {
            "buffer" : 0,
            "byteLength" : 37200,
            "byteOffset" : 78976,
            "target" : 34962
        },
        {
            "buffer" : 0,
            "byteLength" : 24800,
            "byteOffset" : 116176,
            "target" : 34962
        },
        {
            "buffer" : 0,
            "byteLength" : 37200,
            "byteOffset" : 140976,
            "target" : 34962
        },
        {
            "buffer" : 0,
            "byteLength" : 31104,
            "byteOffset" : 178176,
            "target" : 34963
        },
        {
            "buffer" : 0,
            "byteLength" : 8736,
            "byteOffset" : 209280,
            "target" : 34962
        },
        {
            "buffer" : 0,
            "byteLength" : 5824,
            "byteOffset" : 218016,
            "target" : 34962
        },
        {
            "buffer" : 0,
            "byteLength" : 8736,
            "byteOffset" : 223840,
            "target" : 34962
        },
        {
            "buffer" : 0,
            "byteLength" : 7140,
            "byteOffset" : 232576,
            "target" : 34963
        }
    ],
    "buffers" : [
        {
            "byteLength" : 239716,
            "uri" : "data:application/octet-stream;base64,"
        }
    ]
}
